<svg viewBox="0 0 32 32" xmlns="http://www.w3.org/2000/svg">
  <!-- Background circle -->
  <circle cx="16" cy="16" r="16" fill="#EBF1FA"/>

  <!-- Shirt -->
  <path d="M3 32 Q4 26 9 24 L16 26.5 L23 24 Q28 26 29 32Z" fill="#3A5D8C"/>

  <!-- Neck -->
  <rect x="14.5" y="22" width="3" height="5" rx="1.5" fill="#C07848"/>

  <!-- Face -->
  <ellipse cx="16" cy="16" rx="8" ry="8.5" fill="#D4956A"/>

  <!-- Hair -->
  <path d="M8.5 12.5 Q9.5 5.5 16 6 Q22.5 5.5 23.5 12.5 Q20 8 16 8.5 Q12 8 8.5 12.5Z" fill="#1A0A02"/>

  <!-- Left ear -->
  <ellipse cx="8.2" cy="16.5" rx="1.4" ry="2.1" fill="#C07848"/>
  <!-- Right ear -->
  <ellipse cx="23.8" cy="16.5" rx="1.4" ry="2.1" fill="#C07848"/>

  <!-- Left eye white -->
  <ellipse cx="12.8" cy="16" rx="2.2" ry="2" fill="white"/>
  <!-- Right eye white -->
  <ellipse cx="19.2" cy="16" rx="2.2" ry="2" fill="white"/>

  <!-- Left iris -->
  <circle cx="13.1" cy="16.2" r="1.4" fill="#2A1200"/>
  <!-- Right iris -->
  <circle cx="19.5" cy="16.2" r="1.4" fill="#2A1200"/>

  <!-- Eye highlights -->
  <circle cx="13.6" cy="15.7" r="0.5" fill="white"/>
  <circle cx="20" cy="15.7" r="0.5" fill="white"/>

  <!-- Left eyebrow -->
  <path d="M11 13.5 Q12.8 12.1 14.6 13" fill="none" stroke="#1A0A02" stroke-width="1.1" stroke-linecap="round"/>
  <!-- Right eyebrow -->
  <path d="M17.4 13 Q19.2 12.1 21 13.5" fill="none" stroke="#1A0A02" stroke-width="1.1" stroke-linecap="round"/>

  <!-- Smile -->
  <path d="M13.5 21 Q16 23.5 18.5 21" fill="none" stroke="#A04020" stroke-width="1.1" stroke-linecap="round"/>
</svg>
